<mxfile host="app.diagrams.net" modified="2024-04-07T15:32:20.228Z" agent="Mozilla/5.0 (Windows NT 10.0; Win64; x64) AppleWebKit/537.36 (KHTML, like Gecko) Chrome/121.0.0.0 Safari/537.36 OPR/107.0.0.0" version="24.2.2" etag="Ukh1KhJt-ZuX6Pyig7Gq" type="github">
  <diagram name="Page-1" id="HbrsYZivinRdOleY_qr6">
    <mxGraphModel>
      <root>
        <mxCell id="0" />
        <mxCell id="1" parent="0" />
      </root>
    </mxGraphModel>
  </diagram>
</mxfile>
